<?xml version="1.0" encoding="UTF-8"?>
<svg version="1.1" xmlns="http://www.w3.org/2000/svg" width="1024" height="1024">
<path d="M0 0 C4.30334634 2.32380702 7.30861724 4.91308544 10 9 C10.37720935 10.65728754 10.71739982 12.32398508 11 14 C10.154375 14.40089844 9.30875 14.80179688 8.4375 15.21484375 C-7.06549785 22.98395972 -12.59463633 34.21767564 -19.54296875 49.36328125 C-21 52 -21 52 -24 54 C-25.91015625 53.9765625 -25.91015625 53.9765625 -28.0625 53.625 C-28.85785156 53.52445313 -29.65320313 53.42390625 -30.47265625 53.3203125 C-32.1473006 53.10807009 -33.82178282 52.8945443 -35.49609375 52.6796875 C-40.488262 52.32143518 -43.61275194 52.90393131 -47.75 55.8125 C-52.89748968 60.39312581 -57.36643682 65.91758396 -58.24462891 72.96240234 C-58.49347761 77.32595928 -58.31768419 81.64066698 -58 86 C-57.04130005 85.9685791 -57.04130005 85.9685791 -56.06323242 85.93652344 C-40.54981298 85.49452177 -29.03209852 85.88873341 -16 95 C-15.86263944 91.87408615 -15.86263944 91.87408615 -17 88.5 C-18.96086068 80.89466179 -18.62068921 73.3706884 -16 66 C-15.67 66 -15.34 66 -15 66 C-14.88785156 67.05574219 -14.88785156 67.05574219 -14.7734375 68.1328125 C-13.16483098 80.21313205 -8.78708718 93.90151058 1.1796875 101.70703125 C2.08074219 102.34705078 2.08074219 102.34705078 3 103 C2.2884375 101.88625 2.2884375 101.88625 1.5625 100.75 C-0.94933729 96.32916637 -1.11751626 92.81149637 -1.0625 87.75 C-1.05347656 86.67234375 -1.04445313 85.5946875 -1.03515625 84.484375 C-1.01775391 83.25460938 -1.01775391 83.25460938 -1 82 C-0.34 82 0.32 82 1 82 C1.23783203 82.96486328 1.23783203 82.96486328 1.48046875 83.94921875 C3.99014151 93.66900109 7.10711919 102.96720065 12.25 111.625 C14.98510335 116.38019238 15.50391146 120.1485521 15.75 125.5625 C16.36115122 131.52122443 20.8058712 134.90571706 25.1171875 138.5078125 C26.38827716 139.51519062 27.68665031 140.48893777 29.0078125 141.4296875 C33.68945774 144.93618292 33.68945774 144.93618292 34.578125 147.98046875 C34.758617 151.41626283 34.12430402 153.78122492 32.4375 156.75 C28.80441121 160.10362042 25.11942854 163 20 163 C19.505 161.824375 19.01 160.64875 18.5 159.4375 C14.33841019 151.20162646 6.50563323 146.09987912 -2 143 C-5.64508782 142.06808719 -9.31902697 141.2657079 -13.02319336 140.60668945 C-17.99900637 139.62343811 -20.98662188 138.35661965 -24 134 C-24.18285362 131.20115996 -24.14569368 128.93228263 -23.875 126.1875 C-23.65478074 121.26815775 -23.51700816 117.35823157 -26.75 113.375 C-32.90734085 107.71927552 -40.74856414 104.06667893 -49 103 C-45.96136726 107.50090994 -42.8954526 111.9572137 -39.4375 116.1484375 C-29.13076564 128.65846333 -20.79623666 142.09878229 -17 158 C-16.8256543 158.60674561 -16.65130859 159.21349121 -16.47167969 159.83862305 C-12.57678079 177.686211 -16.9219889 197.22747317 -23 214 C-22.34515625 213.33613281 -21.6903125 212.67226563 -21.015625 211.98828125 C-20.10296875 211.10527344 -19.1903125 210.22226562 -18.25 209.3125 C-16.92742187 208.00732422 -16.92742187 208.00732422 -15.578125 206.67578125 C-6.18894694 198.97659857 4.06468138 198.31459424 15.75 198.6875 C17.14058415 198.71265646 18.53121299 198.73545647 19.921875 198.75585938 C23.28242512 198.81420226 26.64060526 198.89601873 30 199 C29.46455566 198.61038086 28.92911133 198.22076172 28.37744141 197.81933594 C20.05846822 191.68916864 13.38534568 184.51337086 9 175 C9.33 174.34 9.66 173.68 10 173 C10.71542969 173.7734375 11.43085937 174.546875 12.16796875 175.34375 C19.07568737 182.62859398 25.99345099 188.42951245 35 193 C35.66 193 36.32 193 37 193 C36.278125 192.54625 35.55625 192.0925 34.8125 191.625 C31.00127941 188.06786079 28.78833993 183.88812915 27 179 C27.33 178.34 27.66 177.68 28 177 C28.4846875 177.6290625 28.969375 178.258125 29.46875 178.90625 C38.30499531 191.15186523 38.30499531 191.15186523 51.2421875 197.4921875 C52.44101562 197.61851562 53.63984375 197.74484375 54.875 197.875 C64.67984438 199.23088147 68.5802249 203.34059106 74.75390625 210.7578125 C80.04519606 216.03990007 86.98467544 215.5914957 94.05078125 216.03515625 C99.20171808 216.46507696 102.26494491 217.10190679 106 221 C108.02342691 225.04685381 107.53723561 230.10405804 106.328125 234.37109375 C105.6103633 236.27045373 104.81206948 238.13900743 104 240 C103.19175781 239.65066406 102.38351562 239.30132812 101.55078125 238.94140625 C100.48214844 238.48636719 99.41351562 238.03132812 98.3125 237.5625 C97.25675781 237.11003906 96.20101563 236.65757812 95.11328125 236.19140625 C89.14528776 233.90754425 83.63481159 233.80724552 77.3125 233.8125 C75.9661145 233.81262085 75.9661145 233.81262085 74.5925293 233.81274414 C68.49274288 233.86540975 62.91755623 234.50411218 57 236 C53.96455884 236.66799352 51.11262835 237.247034 48 237 C44.80095066 234.65403048 43.15958243 232.2443606 41 228.9375 C36.64997229 222.5483968 31.35749524 220.49298079 24 219 C15.88199146 217.95535704 8.64197328 219.59528419 1.9921875 224.47265625 C-8.93311505 234.475693 -11.60548364 250.89736904 -14.375 264.8125 C-17.94637964 280.70313301 -27.92329578 290.65203672 -40.296875 300.12890625 C-48.83903228 306.69238439 -56.94709294 313.850826 -65 321 C-65.77730469 321.68449219 -66.55460938 322.36898438 -67.35546875 323.07421875 C-88.27570269 341.65917076 -111.86828951 367.53814024 -114.75 396.75 C-114.85020265 398.83259013 -114.93229207 400.91610032 -115 403 C-115.12955078 404.83884766 -115.12955078 404.83884766 -115.26171875 406.71484375 C-115.82454487 419.43471416 -112.93750883 432.6133918 -104.421875 442.51171875 C-103.95265625 443.00285156 -103.4834375 443.49398438 -103 444 C-102.236875 444.845625 -101.47375 445.69125 -100.6875 446.5625 C-80.67016374 464.71775847 -58.65473269 468.15954619 -32.34863281 467.18017578 C-25.05534773 466.78775493 -18.08747722 465.74251428 -11 464 C-10.18160645 463.80132324 -9.36321289 463.60264648 -8.52001953 463.39794922 C21.43283146 455.91674135 48.77356707 442.03616235 71.16015625 420.6875 C73.34850284 418.61654751 75.54760494 416.65753092 77.875 414.75 C89.8583809 404.58317073 98.81468331 390.26850585 107 377 C107.59425781 376.071875 108.18851563 375.14375 108.80078125 374.1875 C117.92665454 359.41827058 124.31170777 342.42762289 129 325.75 C129.2475 324.88503906 129.495 324.02007812 129.75 323.12890625 C130.51720865 320.42369657 131.26316605 317.7136358 132 315 C132.26272705 314.0416626 132.5254541 313.0833252 132.79614258 312.09594727 C139.97413874 284.85345607 139.33317307 255.76652208 136 228 C135.25234375 228.61488281 134.5046875 229.22976563 133.734375 229.86328125 C132.74953125 230.67152344 131.7646875 231.47976563 130.75 232.3125 C129.77546875 233.11300781 128.8009375 233.91351563 127.796875 234.73828125 C125.56273241 236.54494125 123.303885 238.28502942 121 240 C121.21003662 238.99924438 121.21003662 238.99924438 121.42431641 237.97827148 C122.74653103 231.28711729 123.38449252 224.8787226 123.375 218.0625 C123.37693359 216.5938147 123.37693359 216.5938147 123.37890625 215.09545898 C123.23744337 205.1102696 121.37194185 195.66778085 119 186 C123.60011941 187.45401187 126.72843832 190.0684988 130.1875 193.3125 C130.75557373 193.84447998 131.32364746 194.37645996 131.90893555 194.92456055 C143.3114806 205.86620272 153.04585907 219.53930896 157 235 C153.45756548 233.63408831 150.07372071 232.09068516 146.6875 230.375 C145.80449219 229.92898438 144.92148437 229.48296875 144.01171875 229.0234375 C143.01591797 228.51683594 143.01591797 228.51683594 142 228 C142.11593506 228.6391333 142.23187012 229.2782666 142.35131836 229.93676758 C142.88493963 232.89448549 143.41124658 235.85346263 143.9375 238.8125 C144.11990234 239.81732422 144.30230469 240.82214844 144.49023438 241.85742188 C146.54374932 253.46911549 147.16406031 264.81536998 147.13037109 276.5871582 C147.12503401 278.79841039 147.13033567 281.00945725 147.13671875 283.22070312 C147.14532453 296.20764171 146.58939888 308.8940365 143.8125 321.625 C143.59182861 322.65133545 143.37115723 323.6776709 143.14379883 324.73510742 C132.14428802 374.4885745 105.49873447 419.52605315 65 451 C63.58074219 452.10988281 63.58074219 452.10988281 62.1328125 453.2421875 C25.44445719 481.36668268 -22.86726936 501.59732615 -69.90234375 495.421875 C-73.98542228 494.79646007 -77.98185869 493.95648748 -82 493 C-82.81855469 492.80664062 -83.63710938 492.61328125 -84.48046875 492.4140625 C-100.20348984 487.87120087 -114.28462992 478.08979207 -126 467 C-126.71414063 466.33871094 -127.42828125 465.67742187 -128.1640625 464.99609375 C-141.95267492 451.81971702 -151.14008929 433.37414606 -155.52832031 414.94970703 C-155.96317447 413.1522198 -156.45935123 411.36986333 -156.9609375 409.58984375 C-165.42347861 375.7784983 -154.81599099 339.6301988 -138.89941406 309.70166016 C-138.11748133 308.22227059 -137.36467588 306.72755706 -136.6171875 305.23046875 C-130.79115336 293.87493515 -123.14968066 282.81937133 -115 273 C-134.14170283 289.59209078 -146.95417949 310.45810081 -160 331.93359375 C-166.22728487 342.10877665 -172.87182052 351.26484607 -181 360 C-181.75796875 360.83917969 -182.5159375 361.67835938 -183.296875 362.54296875 C-192.73985455 372.55459488 -207.98757939 383.90859394 -222 386 C-220.74633267 382.7220625 -219.31657868 379.69570016 -217.625 376.625 C-209.77497615 360.90165847 -208.89499304 343.99254778 -213.8125 327.23046875 C-218.96913107 311.86800535 -229.22180832 298.45611504 -243.80078125 290.9765625 C-251.61018915 287.15002527 -251.61018915 287.15002527 -260 285 C-260 284.34 -260 283.68 -260 283 C-259.28457031 282.87625 -258.56914062 282.7525 -257.83203125 282.625 C-245.92252585 280.15990186 -234.87927688 274.30001621 -228 264 C-217.62851564 246.41976414 -216.15753201 224.67398832 -221 205 C-227.16029531 181.93938411 -238.81525307 163.45405691 -256 147 C-257.3366989 145.67004075 -258.67132049 144.33797097 -260 143 C-258.82308594 143.28875 -257.64617187 143.5775 -256.43359375 143.875 C-246.85321577 146.08441872 -237.66095226 147.38784755 -227.8125 147.375 C-226.39892212 147.37693359 -226.39892212 147.37693359 -224.95678711 147.37890625 C-210.72353156 147.15649189 -199.24124383 142.6544263 -188 134 C-187.37222656 133.52691406 -186.74445313 133.05382812 -186.09765625 132.56640625 C-165.592455 116.15294584 -154.5367466 84.79856476 -148.64794922 60.03027344 C-148.15469607 58.00569539 -147.58419497 56.00023278 -147 54 C-146.34 53.67 -145.68 53.34 -145 53 C-145.01571045 53.58789307 -145.0314209 54.17578613 -145.04760742 54.78149414 C-145.83408433 88.81238304 -134.69097834 113.87855981 -114.62158203 140.81054688 C-109.95260985 147.11457315 -105.46874551 153.55319552 -101 160 C-100.42040527 160.83466797 -99.84081055 161.66933594 -99.24365234 162.52929688 C-86.31173857 181.24754168 -75.97032003 197.77923795 -75 221 C-73.05987463 215.30280645 -72.69516365 210.24544145 -72.75 204.25 C-72.74226562 203.41984375 -72.73453125 202.5896875 -72.7265625 201.734375 C-72.76742255 188.49571742 -76.69095823 178.54568681 -82.4375 166.875 C-83.79767389 164.08422664 -85.15016693 161.2898589 -86.49609375 158.4921875 C-86.81508636 157.82958923 -87.13407898 157.16699097 -87.46273804 156.48431396 C-93.45146665 143.885983 -96.53275012 130.27864957 -93.12890625 116.46484375 C-89.56901032 107.41920655 -83.8984521 99.69423291 -76 94 C-75.34 94 -74.68 94 -74 94 C-74.32226562 93.03578125 -74.64453125 92.0715625 -74.9765625 91.078125 C-78.07486753 80.16551083 -77.13185978 67.0471151 -72 57 C-71.60296875 56.19175781 -71.2059375 55.38351563 -70.796875 54.55078125 C-68.33909812 49.84522741 -65.44050932 46.02637235 -62 42 C-62.98226562 42.01571045 -62.98226562 42.01571045 -63.984375 42.03173828 C-66.98954332 42.07365359 -69.99464984 42.09943809 -73 42.125 C-74.02996094 42.14175781 -75.05992187 42.15851563 -76.12109375 42.17578125 C-83.35077986 42.22183021 -89.80667897 42.12888068 -96 38 C-94.92363281 37.90203125 -93.84726562 37.8040625 -92.73828125 37.703125 C-83.4099264 36.77844217 -74.85098848 35.24495884 -66 32 C-65.19175781 31.73703125 -64.38351562 31.4740625 -63.55078125 31.203125 C-57.44519976 28.9441664 -53.84840257 24.98406117 -49.38671875 20.3515625 C-45.08945845 16.11760063 -41.78635195 14.07194805 -35.671875 13.9140625 C-33.22649871 13.97129471 -30.78118317 14.03118508 -28.3359375 14.09375 C-21.31305348 13.89638558 -17.52034949 10.6816315 -12.6875 5.875 C-12.05199219 5.19179687 -11.41648437 4.50859375 -10.76171875 3.8046875 C-7.24906471 0.20635897 -4.92838129 -0.57980956 0 0 Z " fill="#151515" transform="translate(594,146)"/>
<path d="M0 0 C0.99 0.495 0.99 0.495 2 1 C0.45964394 2.39727951 -1.08235464 3.79274837 -2.625 5.1875 C-4.00365234 6.43466797 -4.00365234 6.43466797 -5.41015625 7.70703125 C-7.23969031 9.32684496 -9.13154955 10.87752822 -11.0625 12.375 C-14.67917538 15.60692268 -17.56530805 19.20233423 -20.58203125 22.9921875 C-22.16785625 24.96486157 -23.789634 26.90927551 -25.44921875 28.8203125 C-45.55583457 51.98868928 -60.70065307 82.63241456 -66.546875 112.74316406 C-67.02613232 115.13015473 -67.57505533 117.49555109 -68.125 119.8671875 C-73.49348868 144.58885982 -72.92041407 172.23886456 -68 197 C-67.86078125 197.73444336 -67.7215625 198.46888672 -67.578125 199.22558594 C-64.35575917 215.82226182 -58.50301093 231.87884242 -51 247 C-50.16662109 248.74023438 -50.16662109 248.74023438 -49.31640625 250.515625 C-45.69332813 258.02195178 -41.69537162 265.11282513 -37 272 C-36.62472168 272.55187988 -36.24944336 273.10375977 -35.86279297 273.67236328 C-30.40912296 281.6427733 -24.5977972 288.92915319 -18 296 C-16.8911739 297.28766902 -15.78680879 298.5791964 -14.6875 299.875 C6.64375048 324.26060967 42.44092541 353.42281611 75.3125 359.625 C79.10873353 361.56725901 79.75344206 364.21275149 81.46875 368.01171875 C90.93438016 386.48418576 108.8997919 399.03856884 128 406 C128 406.33 128 406.66 128 407 C84.06338147 410.21487453 33.03091976 382.40680587 0 356 C-1.52367187 354.78763672 -1.52367187 354.78763672 -3.078125 353.55078125 C-17.70460546 341.66662148 -30.80717555 328.14540602 -42 313 C-42.73992187 312.06671875 -43.47984375 311.1334375 -44.2421875 310.171875 C-79.4837393 265.27338552 -95.05670137 206.10453856 -89.1875 149.6875 C-88.83684208 146.78416342 -88.42973149 143.89255658 -88 141 C-87.82855469 139.74703125 -87.65710938 138.4940625 -87.48046875 137.203125 C-84.35273163 117.75061802 -77.74753802 98.61535987 -69 81 C-68.65888184 80.30148926 -68.31776367 79.60297852 -67.96630859 78.88330078 C-60.19960474 63.10752272 -50.64617088 48.20165261 -39 35 C-38.56300781 34.50274414 -38.12601562 34.00548828 -37.67578125 33.49316406 C-32.1425247 27.22756473 -26.49224664 21.28728567 -20 16 C-19.09096924 15.25435791 -19.09096924 15.25435791 -18.16357422 14.49365234 C-4.56548955 3.34175008 -4.56548955 3.34175008 0 0 Z " fill="#161616" transform="translate(365,237)"/>
<path d="M0 0 C12.40542796 -0.09069825 24.8106324 -0.16394439 37.21631813 -0.20724869 C42.97799718 -0.22804212 48.73943582 -0.25620798 54.50097656 -0.30175781 C60.07069609 -0.34551099 65.64018569 -0.36919896 71.21006393 -0.37950897 C73.32533762 -0.38684775 75.44060003 -0.40117729 77.55577469 -0.42292023 C106.80005501 -0.71133131 106.80005501 -0.71133131 117.453125 8.37109375 C123.91246749 15.17297713 125.31275406 23.98934917 125.30078125 33.05078125 C125.30506638 33.79023483 125.3093515 34.52968842 125.31376648 35.29154968 C125.31946873 36.84531641 125.32004063 38.39910981 125.31567383 39.95288086 C125.31252147 42.29653812 125.33599697 44.6389207 125.36132812 46.98242188 C125.41156595 58.44166177 125.09094361 68.60643091 116.81640625 77.34375 C104.78591806 88.31348546 87.46855402 86.27561186 72.265625 86.1953125 C70.17527401 86.19157586 68.08492125 86.18873197 65.99456787 86.18673706 C60.53006027 86.17915188 55.06566136 86.15954807 49.60119629 86.1373291 C43.02476242 86.1131343 36.44829194 86.10406531 29.87182617 86.09242249 C19.91447552 86.07312013 9.95736268 86.03476193 0 86 C0 70.82 0 55.64 0 40 C9.24 40 18.48 40 28 40 C28 48.25 28 56.5 28 65 C35.30479691 64.93229814 42.60863084 64.86179109 49.91294098 64.7644577 C53.31490299 64.71992349 56.71674544 64.68046299 60.11889648 64.65356445 C64.02873986 64.62241318 67.93808551 64.56762824 71.84765625 64.51171875 C73.66367088 64.50213387 73.66367088 64.50213387 75.51637268 64.49235535 C84.1855309 64.34509567 84.1855309 64.34509567 92 61 C96.47565823 55.61433893 95.47604688 49.15108956 95.4375 42.5 C95.45748047 41.27667969 95.47746094 40.05335938 95.49804688 38.79296875 C95.49740234 37.61347656 95.49675781 36.43398438 95.49609375 35.21875 C95.49794678 34.14560547 95.4997998 33.07246094 95.50170898 31.96679688 C94.87526343 28.26238504 93.62735974 26.64788373 91 24 C87.19584935 21.35591192 83.01348113 21.69319199 78.55957031 21.68115234 C77.71042557 21.67110672 76.86128082 21.6610611 75.98640442 21.65071106 C73.18365141 21.61985527 70.38099403 21.60283725 67.578125 21.5859375 C65.63327205 21.56722778 63.68842724 21.54765452 61.74359131 21.5272522 C56.62759189 21.47590429 51.51156614 21.43629274 46.39544678 21.39910889 C41.17372104 21.35908596 35.95210507 21.3079858 30.73046875 21.2578125 C20.48704857 21.16102163 10.24358318 21.07765073 0 21 C0 14.07 0 7.14 0 0 Z " fill="#171717" transform="translate(448,720)"/>
<path d="M0 0 C11.91843884 -0.06797986 23.83674732 -0.12293354 35.75533676 -0.15543652 C41.29057818 -0.1710422 46.8256792 -0.19218676 52.36083984 -0.22631836 C57.71008927 -0.25909432 63.05920429 -0.27689128 68.40854645 -0.28463173 C70.44172529 -0.29014265 72.47489741 -0.3009035 74.50801849 -0.31719017 C102.17927356 -0.52988843 102.17927356 -0.52988843 111 7 C117.62173941 13.77223348 118.45715453 20.7196698 118.43164062 29.92700195 C118.25176929 36.20146524 116.99799019 41.11037171 113 46 C109.32802003 49.12663641 105.70743913 50.9830254 101 52 C101.59167969 52.24234375 102.18335938 52.4846875 102.79296875 52.734375 C113.25965987 57.17375459 113.25965987 57.17375459 116.11669922 61.81347656 C117.14695139 64.36376357 117.22878495 66.23963409 117.1953125 68.984375 C117.19031738 69.82709961 117.18532227 70.66982422 117.18017578 71.53808594 C117.16196777 72.59801758 117.14375977 73.65794922 117.125 74.75 C117.08375 78.1325 117.0425 81.515 117 85 C107.43 85 97.86 85 88 85 C87.6875 77.25 87.6875 77.25 87.61206055 74.82910156 C87.39696278 70.67368483 87.0908561 67.90731358 84 65 C81.03107289 64.01035763 78.98850092 63.84726273 75.88598633 63.79467773 C74.32470757 63.7647599 74.32470757 63.7647599 72.73188782 63.73423767 C71.60993515 63.71752518 70.48798248 63.70081268 69.33203125 63.68359375 C68.18208176 63.66281265 67.03213226 63.64203156 65.84733582 63.62062073 C62.16911875 63.55516658 58.49082952 63.49625926 54.8125 63.4375 C52.32095604 63.39431087 49.82941941 63.35069645 47.33789062 63.30664062 C41.22533335 63.1986881 35.11272233 63.09958334 29 63 C29 70.59 29 78.18 29 86 C19.43 86 9.86 86 0 86 C0 71.81 0 57.62 0 43 C8.80945313 42.92652344 8.80945313 42.92652344 17.796875 42.8515625 C21.51564233 42.81618053 25.23438618 42.78022304 28.953125 42.7421875 C34.85673682 42.6818599 40.76031575 42.6236737 46.6640625 42.578125 C51.42334127 42.5412729 56.18244082 42.49491303 60.94156647 42.44193649 C62.75801706 42.42339217 64.57450607 42.40828434 66.3910141 42.39665604 C68.93371464 42.37979428 71.47600472 42.3507595 74.01855469 42.31884766 C75.14712387 42.31560738 75.14712387 42.31560738 76.29849243 42.31230164 C79.99443575 42.25297451 82.90751042 42.1437568 86 40 C87.96075096 37.08706327 88.34648495 34.53713346 88.4375 31.0625 C88.47746094 30.22847656 88.51742187 29.39445313 88.55859375 28.53515625 C87.72622256 24.7574716 85.9955649 23.39781853 83 21 C80.07687545 20.50201718 77.73161223 20.30737246 74.81323242 20.34057617 C74.00295593 20.33009247 73.19267944 20.31960876 72.35784912 20.30880737 C69.68999763 20.28009534 67.02344683 20.2863441 64.35546875 20.29296875 C62.5017179 20.27985133 60.64798134 20.26454697 58.79426575 20.24714661 C53.92311059 20.2072887 49.05232927 20.19710565 44.18103027 20.19311523 C39.20715997 20.1837853 34.23350946 20.14637262 29.25976562 20.11132812 C19.50646895 20.04674388 9.75349734 20.01610687 0 20 C0 13.4 0 6.8 0 0 Z " fill="#141514" transform="translate(593,720)"/>
<path d="M0 0 C9.24 0 18.48 0 28 0 C28 10.89 28 21.78 28 33 C48.46 33 68.92 33 90 33 C90 22.11 90 11.22 90 0 C99.57 0 109.14 0 119 0 C119 28.38 119 56.76 119 86 C109.43 86 99.86 86 90 86 C90 75.11 90 64.22 90 53 C69.54 53 49.08 53 28 53 C28 63.56 28 74.12 28 85 C18.76 85 9.52 85 0 85 C0 56.95 0 28.9 0 0 Z " fill="#151515" transform="translate(170,720)"/>
<path d="M0 0 C0.78929398 -0.022332 1.57858795 -0.044664 2.39179993 -0.06767273 C3.21891983 -0.11171738 4.04603973 -0.15576202 4.89822388 -0.20114136 C7.55391256 -0.30808928 10.19890404 -0.33350801 12.85664368 -0.33329773 C13.75119263 -0.34055878 14.64574158 -0.34781982 15.56739807 -0.3553009 C29.98106248 -0.31209545 29.98106248 -0.31209545 35.65205383 3.17304993 C39.88453632 7.67737073 41.95044701 13.05621582 43.88447571 18.85322571 C45.15834829 22.44304378 47.03934038 25.42801829 49.10664368 28.60420227 C49.82500752 29.79009665 50.53830339 30.97907156 51.24726868 32.17060852 C51.63721008 32.82045715 52.02715149 33.47030579 52.4289093 34.1398468 C54.08826653 36.90722261 55.74582943 39.67567076 57.40351868 42.44404602 C69.69648182 63.03030403 69.69648182 63.03030403 82.54414368 83.27217102 C83.79414368 85.41670227 83.79414368 85.41670227 83.79414368 87.41670227 C72.90414368 87.41670227 62.01414368 87.41670227 50.79414368 87.41670227 C47.79414368 80.41670227 47.79414368 80.41670227 46.88601685 78.01057434 C45.76883742 75.6252706 44.80153933 74.14313751 42.79414368 72.41670227 C38.2562828 71.28771018 33.83165692 71.48619874 29.18086243 71.63545227 C27.84282826 71.65038544 26.50475015 71.66176741 25.16665649 71.66975403 C21.65556182 71.70020774 18.14714232 71.7786985 14.63710022 71.86738586 C11.05114435 71.9494318 7.46475326 71.98580463 3.87812805 72.02607727 C-3.15106173 72.11171083 -10.17800226 72.25234499 -17.20585632 72.41670227 C-19.84585632 77.03670227 -22.48585632 81.65670227 -25.20585632 86.41670227 C-35.76585632 86.41670227 -46.32585632 86.41670227 -57.20585632 86.41670227 C-54.95715705 79.67060446 -54.95715705 79.67060446 -52.81523132 76.46357727 C-52.35245789 75.76103821 -51.88968445 75.05849915 -51.41288757 74.33467102 C-50.93206726 73.61924133 -50.45124695 72.90381165 -49.95585632 72.16670227 C-49.01135126 70.74602014 -48.06865811 69.32413184 -47.12773132 67.90107727 C-46.66152374 67.22428925 -46.19531616 66.54750122 -45.71498108 65.85020447 C-44.13933608 63.4650858 -44.13933608 63.4650858 -43.16694641 60.83329773 C-41.82737785 57.77903875 -40.60818716 55.74919483 -38.20585632 53.41670227 C-32.93368422 51.92854435 -27.73128469 52.11013693 -22.30741882 52.22138977 C-20.74656038 52.21759979 -19.18570697 52.20940668 -17.62489319 52.19700623 C-13.53042782 52.17624386 -9.43863808 52.21504866 -5.3445282 52.26649475 C-1.16155445 52.30844231 3.02118421 52.29374452 7.20429993 52.28388977 C15.4017376 52.27288855 23.59721618 52.32484683 31.79414368 52.41670227 C31.46204895 51.86321106 31.12995422 51.30971985 30.78779602 50.73945618 C23.00508118 37.76826477 23.00508118 37.76826477 21.41426086 35.10908508 C20.30422714 33.26438167 19.18458248 31.42543721 18.05683899 29.59150696 C17.50866516 28.69593079 16.96049133 27.80035461 16.39570618 26.87763977 C15.89635559 26.06859192 15.397005 25.25954407 14.88252258 24.42597961 C13.79414368 22.41670227 13.79414368 22.41670227 13.79414368 20.41670227 C13.13414368 20.41670227 12.47414368 20.41670227 11.79414368 20.41670227 C11.58789368 21.20045227 11.38164368 21.98420227 11.16914368 22.79170227 C10.71539368 23.98795227 10.26164368 25.18420227 9.79414368 26.41670227 C9.3542511 27.66387024 9.3542511 27.66387024 8.9054718 28.93623352 C7.50513316 32.03649702 6.28556016 34.07770186 3.79414368 36.41670227 C-1.52521379 37.6870765 -6.67543042 37.36287668 -12.08085632 37.04170227 C-13.54685084 36.99149698 -15.01301002 36.9458772 -16.47929382 36.90498352 C-20.05825549 36.79520893 -23.63100749 36.62295575 -27.20585632 36.41670227 C-25.86171411 32.77690984 -24.22383458 29.65614951 -22.12382507 26.39717102 C-21.21987 24.98661438 -21.21987 24.98661438 -20.2976532 23.54756165 C-19.66923523 22.57625305 -19.04081726 21.60494446 -18.39335632 20.60420227 C-17.15741437 18.6811954 -15.92173287 16.7580211 -14.68632507 14.83467102 C-14.13871521 13.98670959 -13.59110535 13.13874817 -13.02690125 12.26509094 C-11.24959058 9.59715202 -11.24959058 9.59715202 -10.17819214 7.35038757 C-7.54247764 2.36594162 -5.692709 0.48384724 0 0 Z " fill="#171717" transform="translate(783.2058563232422,718.5832977294922)"/>
<path d="M0 0 C32.97040041 -2.42351085 32.97040041 -2.42351085 39.43359375 2.51953125 C42.01639219 5.30412387 43.8192886 8.51614618 45.63720703 11.83398438 C48.33982377 16.12950851 52.08049413 19.58564343 55.625 23.1875 C56.99614076 24.61470211 58.36361435 26.04544081 59.7265625 27.48046875 C60.31002441 28.08785889 60.89348633 28.69524902 61.49462891 29.32104492 C63 31 63 31 65 34 C68.22444254 32.92518582 68.83274667 32.32427942 70.9375 29.8125 C71.54722656 29.09320312 72.15695312 28.37390625 72.78515625 27.6328125 C73.88150391 26.32957031 73.88150391 26.32957031 75 25 C75.93478803 23.91284862 76.87108653 22.82699485 77.80859375 21.7421875 C78.83085921 20.55740386 79.85299399 19.37250745 80.875 18.1875 C81.34413818 17.64391846 81.81327637 17.10033691 82.29663086 16.5402832 C82.77366455 15.98429443 83.25069824 15.42830566 83.7421875 14.85546875 C84.26079346 14.27240967 84.77939941 13.68935059 85.3137207 13.08862305 C87.11901978 10.94308168 87.11901978 10.94308168 88.77026367 8.12426758 C93.70553708 0.70132455 93.70553708 0.70132455 97.8581543 -0.56796265 C103.08676544 -1.36364458 108.30648734 -1.00487497 113.5625 -0.6875 C115.15933578 -0.63223551 116.75635625 -0.58206064 118.35351562 -0.53710938 C122.24029059 -0.41672835 126.1180837 -0.2275244 130 0 C128.37825822 3.41179019 126.50978823 5.83948858 123.9375 8.625 C123.12796875 9.50800781 122.3184375 10.39101563 121.484375 11.30078125 C120.66453125 12.19152344 119.8446875 13.08226562 119 14 C117.56061762 15.60247787 116.12309315 17.20662664 114.6875 18.8125 C109.68659052 24.37003245 104.60741424 29.85416767 99.53173828 35.34326172 C97.0394124 38.03897791 94.54881825 40.73624103 92.0625 43.4375 C90.78052734 44.82775391 90.78052734 44.82775391 89.47265625 46.24609375 C88.65667969 47.15488281 87.84070313 48.06367187 87 49 C86.13858398 49.89485107 85.27716797 50.78970215 84.38964844 51.71166992 C81.56351035 55.13116764 81.34813061 57.91746451 81.29296875 62.3671875 C81.27028679 63.38656906 81.27028679 63.38656906 81.24714661 64.42654419 C81.20449287 66.57637283 81.19545481 68.72479161 81.1875 70.875 C81.16433781 72.34118273 81.13896888 73.80733236 81.11132812 75.2734375 C81.04457638 78.84971265 81.02339864 82.42213449 81 86 C71.1 86 61.2 86 51 86 C51.144375 81.215 51.28875 76.43 51.4375 71.5 C51.38427549 58.71097441 51.38427549 58.71097441 45.27563477 47.859375 C42.62749505 45.35120039 39.90309878 42.98716706 37.05322266 40.7109375 C33.71887452 37.93244621 30.89835683 34.72011897 28 31.5 C26.85674962 30.26843055 25.71089578 29.03927294 24.5625 27.8125 C23.98628906 27.19503906 23.41007812 26.57757812 22.81640625 25.94140625 C20.88178036 23.87364481 18.94155021 21.81126043 17 19.75 C16.33226562 19.04037109 15.66453125 18.33074219 14.9765625 17.59960938 C13.70182509 16.24551578 12.42587311 14.89256406 11.1484375 13.54101562 C0 1.69273128 0 1.69273128 0 0 Z " fill="#171717" transform="translate(303,720)"/>
<path d="M0 0 C4.74292251 4.24596188 7.77847993 9.10427951 11 14.5625 C11.79337769 15.89788818 11.79337769 15.89788818 12.6027832 17.26025391 C19.82849991 29.61227063 23.17809641 39.80941119 23.1875 54.1875 C23.19974609 55.18458984 23.21199219 56.18167969 23.22460938 57.20898438 C23.22750977 58.64274414 23.22750977 58.64274414 23.23046875 60.10546875 C23.23457764 60.97324951 23.23868652 61.84103027 23.24291992 62.73510742 C23 65 23 65 21 68 C20.34257813 66.83210938 20.34257813 66.83210938 19.671875 65.640625 C19.03765625 64.52171875 18.4034375 63.4028125 17.75 62.25 C17.4008252 61.63382812 17.05165039 61.01765625 16.69189453 60.3828125 C14.52449541 56.58590893 12.29895865 52.83303509 10.0078125 49.109375 C-7.31528081 20.93495728 -7.31528081 20.93495728 -5 8 C-3.81327947 4.94089819 -2.35256682 2.35256682 0 0 Z " fill="#F7F7F7" transform="translate(527,258)"/>
<path d="M0 0 C-3.7896394 3.38648627 -6.71218273 5.78888241 -11.8125 6.625 C-17.13549746 6.22125967 -22.10981367 4.01360614 -27 2 C-27 1.67 -27 1.34 -27 1 C-25.84242188 0.93941406 -24.68484375 0.87882813 -23.4921875 0.81640625 C-21.95311543 0.73194498 -20.41405345 0.64729982 -18.875 0.5625 C-18.11445312 0.52318359 -17.35390625 0.48386719 -16.5703125 0.44335938 C-13.21165327 0.25515864 -10.0118957 0.00215135 -6.6953125 -0.59765625 C-4.056194 -0.99161162 -2.49417376 -0.86336784 0 0 Z " fill="#242525" transform="translate(540,170)"/>
<path d="M0 0 C2.26171875 -0.2578125 2.26171875 -0.2578125 5 0 C8.95784951 3.44493671 11.79574833 7.33680785 12.4375 12.5625 C12.293125 13.366875 12.14875 14.17125 12 15 C6.89214188 12.91902077 2.85617176 8.66006971 0 4 C0 2.68 0 1.36 0 0 Z " fill="#E8E8E8" transform="translate(590,260)"/>
<path d="M0 0 C0.66 0 1.32 0 2 0 C2.15855469 0.63164062 2.31710937 1.26328125 2.48046875 1.9140625 C4.53618645 9.79620662 7.18002137 17.36487999 10 25 C7.40478472 24.62925496 6.27596886 24.32506306 4.55078125 22.29296875 C4.14214844 21.59816406 3.73351562 20.90335938 3.3125 20.1875 C2.89613281 19.50042969 2.47976563 18.81335938 2.05078125 18.10546875 C-0.02176878 13.95266405 -0.11268635 10.3671439 -0.0625 5.75 C-0.04896484 4.13351563 -0.04896484 4.13351563 -0.03515625 2.484375 C-0.02355469 1.66453125 -0.01195312 0.8446875 0 0 Z " fill="#2A2A2A" transform="translate(593,228)"/>
<path d="M0 0 C6.93385148 -0.90441541 11.48661001 1.92304878 17 6 C17.33 6.66 17.66 7.32 18 8 C15.37348569 7.71880143 12.74930665 7.42556162 10.125 7.125 C9.37863281 7.04636719 8.63226562 6.96773438 7.86328125 6.88671875 C2.2265625 6.2265625 2.2265625 6.2265625 0 4 C0 2.68 0 1.36 0 0 Z " fill="#E9E9E9" transform="translate(645,354)"/>
<path d="M0 0 C-3.49207759 3.59478576 -6.97475584 7.00247775 -11 10 C-12.32 10 -13.64 10 -15 10 C-15.36576193 6.70814262 -15.3221413 5.41418168 -13.25 2.75 C-9.03603676 -0.52752696 -5.24053042 -0.10077943 0 0 Z " fill="#EDEDED" transform="translate(567,169)"/>
<path d="M0 0 C0.66 0.33 1.32 0.66 2 1 C-7.70984129 9.80793904 -7.70984129 9.80793904 -11.4375 12.875 C-13.41141992 14.5119092 -15.23955661 16.1417542 -17 18 C-17.99 17.34 -18.98 16.68 -20 16 C-17.41768612 13.89457973 -14.83396996 11.79088731 -12.25 9.6875 C-11.15558594 8.79514648 -11.15558594 8.79514648 -10.0390625 7.88476562 C-8.97558594 7.01948242 -8.97558594 7.01948242 -7.890625 6.13671875 C-7.24125977 5.60780029 -6.59189453 5.07888184 -5.92285156 4.53393555 C-3.97720537 2.98181581 -1.9984569 1.48329048 0 0 Z " fill="#222222" transform="translate(365,237)"/>
<path d="M0 0 C1.23102992 3.69308976 0.87175152 6.88050712 0.5625 10.6875 C0.51029297 11.38939453 0.45808594 12.09128906 0.40429688 12.81445312 C0.27492135 14.54338054 0.13817469 16.27175355 0 18 C-0.99 17.34 -1.98 16.68 -3 16 C-3.66 16.33 -4.32 16.66 -5 17 C-4.35841048 14.35307023 -3.71195217 11.70750071 -3.0625 9.0625 C-2.88009766 8.30775391 -2.69769531 7.55300781 -2.50976562 6.77539062 C-1.11328125 1.11328125 -1.11328125 1.11328125 0 0 Z " fill="#444445" transform="translate(448,199)"/>
<path d="M0 0 C0 3.6987636 -0.84352062 4.35773852 -3.25 7.0625 C-4.15492188 8.10083984 -4.15492188 8.10083984 -5.078125 9.16015625 C-6.99257774 10.99289454 -8.61165734 11.90694802 -11 13 C-12.68889872 14.3050581 -14.3603279 15.63360658 -16 17 C-14.43122496 13.20144921 -12.03476878 10.79977997 -9.125 7.9375 C-8.26132812 7.08027344 -7.39765625 6.22304688 -6.5078125 5.33984375 C-4.41510391 3.387301 -2.33074012 1.65319939 0 0 Z " fill="#D0D0D1" transform="translate(480,417)"/>
<path d="M0 0 C4.21814817 3.9700218 7.61227103 8.30840284 11 13 C10.01 13.66 9.02 14.32 8 15 C4.57228865 11.0826156 0 5.47848189 0 0 Z " fill="#242424" transform="translate(621,323)"/>
<path d="M0 0 C0.33 0 0.66 0 1 0 C1.33 4.29 1.66 8.58 2 13 C1.01 13.495 1.01 13.495 0 14 C-1.13350534 16.01669827 -1.13350534 16.01669827 -2 18 C-2.20852314 11.59370576 -2.1583195 6.07027358 0 0 Z " fill="#2E2E2E" transform="translate(578,212)"/>
<path d="M0 0 C0.66 0 1.32 0 2 0 C2.36552803 1.41377782 2.71695495 2.83120576 3.0625 4.25 C3.25972656 5.03890625 3.45695313 5.8278125 3.66015625 6.640625 C4.01497267 9.10394822 3.76877544 10.65604132 3 13 C2.01 12.67 1.02 12.34 0 12 C0 8.04 0 4.08 0 0 Z " fill="#323231" transform="translate(593,228)"/>
<path d="M0 0 C0 0.66 0 1.32 0 2 C-3.08888522 4.05925681 -3.70935927 4.2390374 -7.1875 4.125 C-9.0746875 4.063125 -9.0746875 4.063125 -11 4 C-11 3.01 -11 2.02 -11 1 C-3.375 0 -3.375 0 0 0 Z " fill="#232323" transform="translate(535,172)"/>
<path d="M0 0 C1.12894876 0.93274109 2.25300876 1.87140122 3.375 2.8125 C4.00148438 3.33457031 4.62796875 3.85664063 5.2734375 4.39453125 C7 6 7 6 9 9 C7.68 9.33 6.36 9.66 5 10 C4.16121545 8.71186658 3.32913217 7.41936744 2.5 6.125 C2.0359375 5.40570313 1.571875 4.68640625 1.09375 3.9453125 C0 2 0 2 0 0 Z " fill="#353536" transform="translate(603,319)"/>
<path d="M0 0 C0.80824219 0.19464844 1.61648438 0.38929688 2.44921875 0.58984375 C3.06410156 0.74582031 3.67898438 0.90179687 4.3125 1.0625 C4.3125 1.3925 4.3125 1.7225 4.3125 2.0625 C0.3525 2.0625 -3.6075 2.0625 -7.6875 2.0625 C-7.6875 1.4025 -7.6875 0.7425 -7.6875 0.0625 C-4.39053895 -1.03648702 -3.28255097 -0.80874444 0 0 Z " fill="#292929" transform="translate(488.6875,641.9375)"/>
<path d="M0 0 C1.32 0.33 2.64 0.66 4 1 C2.90220176 2.15193623 1.79650554 3.29634937 0.6875 4.4375 C0.07261719 5.07558594 -0.54226563 5.71367187 -1.17578125 6.37109375 C-3 8 -3 8 -6 9 C-6 8.01 -6 7.02 -6 6 C-4.01924973 4.63823419 -2.01920337 3.30406884 0 2 C0 1.34 0 0.68 0 0 Z " fill="#D8D8D8" transform="translate(539,168)"/>
<path d="M0 0 C0.66 0.33 1.32 0.66 2 1 C-1.3 3.97 -4.6 6.94 -8 10 C-8.66 9.34 -9.32 8.68 -10 8 C-6.7 5.36 -3.4 2.72 0 0 Z " fill="#403F3F" transform="translate(365,237)"/>
<path d="M0 0 C4.95 0.99 4.95 0.99 10 2 C8.68 3.32 7.36 4.64 6 6 C3.97945196 4.35830472 1.97956942 2.69088222 0 1 C0 0.67 0 0.34 0 0 Z " fill="#2E2E2E" transform="translate(334,289)"/>
<path d="M0 0 C2.475 0.495 2.475 0.495 5 1 C5 1.99 5 2.98 5 4 C4.01 4 3.02 4 2 4 C1.34 2.68 0.68 1.36 0 0 Z " fill="#1D1D1D" transform="translate(626,333)"/>
<path d="M0 0 C-2.1875 1.625 -2.1875 1.625 -5 3 C-7.8125 2.1875 -7.8125 2.1875 -10 1 C-10 0.67 -10 0.34 -10 0 C-6.33694766 -0.74926071 -3.57644848 -1.2380014 0 0 Z " fill="#3B3C3C" transform="translate(540,170)"/>
<path d="M0 0 C1.04449911 3.13349732 0.93423645 3.98968256 0 7 C-0.66 7 -1.32 7 -2 7 C-2.33 5.35 -2.66 3.7 -3 2 C-2.01 1.34 -1.02 0.68 0 0 Z " fill="#1D1D1D" transform="translate(597,239)"/>
</svg>
