<?xml version="1.0" encoding="UTF-8"?>
<svg version="1.1" xmlns="http://www.w3.org/2000/svg" width="1024" height="1024">
<path d="M0 0 C4.82218999 3.08977359 7.95191467 7.69907325 10 13 C10 13.99 10 14.98 10 16 C9.29875 16.13535156 8.5975 16.27070313 7.875 16.41015625 C-2.05566638 18.66344604 -7.15511508 22.82447143 -12.5559082 31.29516602 C-16.21048156 37.27802613 -19.16470042 43.19895932 -21.24609375 49.92578125 C-22 52 -22 52 -24 54 C-25.93603516 54.13183594 -25.93603516 54.13183594 -28.2890625 53.984375 C-29.14886719 53.95085937 -30.00867188 53.91734375 -30.89453125 53.8828125 C-32.6922976 53.7953675 -34.48935664 53.69161468 -36.28515625 53.5703125 C-42.32111232 53.37300041 -45.75084356 54.37405292 -50.36083984 58.34179688 C-55.97760615 64.02381605 -58.27279834 70.69618525 -58.40429688 78.55322266 C-58.36215988 81.71279476 -58.2160434 84.84736666 -58 88 C-57.1646875 87.7834375 -57.1646875 87.7834375 -56.3125 87.5625 C-45.77165255 84.99851008 -34.93464123 85.24612396 -25.1640625 90.53515625 C-23.03925075 91.95281456 -20.99551319 93.40668327 -19 95 C-18.67 94.67 -18.34 94.34 -18 94 C-18.2165625 93.45214844 -18.433125 92.90429688 -18.65625 92.33984375 C-21.98215818 82.87024407 -22.64113358 72.4582434 -19 63 C-18.67 63 -18.34 63 -18 63 C-17.91363281 63.71542969 -17.82726562 64.43085938 -17.73828125 65.16796875 C-15.98749703 77.58408072 -12.00091493 91.59362367 -1.78515625 99.7734375 C-0.90150391 100.38058594 -0.90150391 100.38058594 0 101 C-0.31710937 100.47921875 -0.63421875 99.9584375 -0.9609375 99.421875 C-2.28920511 96.32591291 -2.42364247 93.60595879 -2.625 90.25 C-2.73714844 88.49429688 -2.73714844 88.49429688 -2.8515625 86.703125 C-2.90054687 85.81109375 -2.94953125 84.9190625 -3 84 C-2.34 84 -1.68 84 -1 84 C-0.68546875 85.0621875 -0.3709375 86.124375 -0.046875 87.21875 C3.56902397 99.6137295 3.56902397 99.6137295 10.0625 110.6875 C12.54777422 114.93651721 13.2315473 119.06305037 14.09375 123.87890625 C15.81774406 129.81628235 19.67398754 132.722013 24.625 136.125 C28.89533603 139.06729587 31.49302647 140.88761029 32.75 146.125 C31.56253849 152.26021779 26.93166246 155.43465058 22 159 C21.34 159 20.68 159 20 159 C20 159.66 20 160.32 20 161 C19.34 161 18.68 161 18 161 C17.6596875 159.700625 17.6596875 159.700625 17.3125 158.375 C14.16643113 150.28510863 8.36459642 146.97568457 1 143 C0.4121875 142.64292969 -0.175625 142.28585937 -0.78125 141.91796875 C-4.87753303 140.22320376 -9.34646497 139.8658347 -13.71289062 139.23242188 C-21.76583437 137.95046689 -21.76583437 137.95046689 -25 135 C-25.6015625 131.85546875 -25.6015625 131.85546875 -25.625 128.1875 C-25.70503223 120.72049292 -27.75165305 115.38291995 -33 110 C-38.44089115 106.08103644 -43.23732279 103.29402944 -50 103 C-49.61070312 103.49886719 -49.22140625 103.99773437 -48.8203125 104.51171875 C-47.60004606 106.07782107 -46.38593608 107.64872742 -45.17578125 109.22265625 C-43.72829347 111.07034711 -42.24613379 112.89140462 -40.73046875 114.68359375 C-35.08417687 121.55218468 -30.71207808 128.75778897 -26.5625 136.625 C-26.05436768 137.57842285 -25.54623535 138.5318457 -25.02270508 139.51416016 C-19.26572799 150.7308555 -17.41805654 160.73096021 -17.4375 173.3125 C-17.43556641 174.61525879 -17.43363281 175.91801758 -17.43164062 177.26025391 C-17.6244896 189.18620958 -20.08530042 199.79184226 -24 211 C-23.42765625 210.23945313 -22.8553125 209.47890625 -22.265625 208.6953125 C-15.90099768 201.12360069 -6.64712221 197.27328248 3 196 C5.7933275 195.8650143 8.57888489 195.86007412 11.375 195.875 C12.09171875 195.87113281 12.8084375 195.86726562 13.546875 195.86328125 C18.44480971 195.87212229 23.15072798 196.31037441 28 197 C27.443125 196.61070312 26.88625 196.22140625 26.3125 195.8203125 C17.58682258 189.42344763 11.39346243 181.88529048 7 172 C9.98237763 173.32122536 11.79741236 174.68405123 13.9375 177.125 C24.27398197 187.70391545 38.56148686 193.90557679 53.16015625 194.73046875 C61.28883033 195.50196602 65.9419547 198.564296 71.3125 204.625 C72.09238281 205.58664062 72.87226562 206.54828125 73.67578125 207.5390625 C77.24986208 211.32338337 80.19310899 212.04834518 85.25 212.2734375 C87.63589151 212.33706127 90.01955881 212.37512701 92.40625 212.390625 C96.33022896 212.50834437 98.51793355 212.70640102 101.9375 214.7890625 C104.47192732 217.50589179 105.90894309 219.35794031 106.1171875 223.11328125 C105.50493066 228.67296835 104.082856 232.32599251 101 237 C100.45472656 236.71382812 99.90945313 236.42765625 99.34765625 236.1328125 C85.8540334 229.62174657 70.53866049 228.71854049 56.29296875 233.3125 C52.57295975 234.42786897 49.86781831 234.53349218 46 234 C43.16905609 231.91049378 41.46698058 229.8104739 39.71484375 226.76953125 C37.19507295 222.46696996 35.34148023 219.59358734 30.5 217.9375 C20.54759556 215.74917011 9.90719008 215.56049461 1 221 C-1.26293105 223.11206898 -2.4713097 224.44847692 -4 227 C-4.60908203 227.99580078 -4.60908203 227.99580078 -5.23046875 229.01171875 C-10.17396469 237.97085447 -12.60730057 248.17062986 -14.98046875 258.06640625 C-18.99932883 274.25298543 -26.54956463 286.10755441 -40 296 C-70.86007728 320.08715603 -105.95029851 350.79341242 -113.375 391.375 C-115.34259967 407.91513474 -115.08530964 424.89592485 -105 439 C-93.38266083 453.57731256 -76.88242851 463.29678736 -58.23583984 465.79931641 C-42.83019523 467.18208992 -27.00422456 466.81268357 -12 463 C-10.73027344 462.7215625 -9.46054687 462.443125 -8.15234375 462.15625 C39.53856757 451.49794214 79.36768112 419.58192485 105.52734375 378.96875 C127.46588534 344.13184393 140.28079136 304.18604351 140.125 262.9375 C140.12306641 261.68557861 140.12113281 260.43365723 140.11914062 259.14379883 C140.07121285 248.74014303 139.67671789 238.38036899 139 228 C138.22914063 228.63808594 137.45828125 229.27617187 136.6640625 229.93359375 C135.66117188 230.75988281 134.65828125 231.58617187 133.625 232.4375 C132.62726563 233.26121094 131.62953125 234.08492187 130.6015625 234.93359375 C128 237 128 237 126 238 C126.15984375 236.700625 126.3196875 235.40125 126.484375 234.0625 C128.02640317 220.06394638 126.95765749 206.72064523 124 193 C123.68095703 191.48599609 123.68095703 191.48599609 123.35546875 189.94140625 C122.92497756 187.95619146 122.4672632 185.97688278 122 184 C126.70721311 185.45845007 129.81490503 188.22929767 133.3125 191.5625 C133.88572998 192.10551758 134.45895996 192.64853516 135.04956055 193.20800781 C136.70994419 194.79512202 138.35589381 196.39605757 140 198 C141.16015625 199.10408203 141.16015625 199.10408203 142.34375 200.23046875 C150.48107523 208.5776853 156.14297781 220.76237939 159 232 C158.67 232.99 158.34 233.98 158 235 C153.71 232.69 149.42 230.38 145 228 C145.45375 229.85625 145.9075 231.7125 146.375 233.625 C149.7022138 247.23632916 150.37354217 260.56018709 150.3125 274.5 C150.31034485 275.38461914 150.3081897 276.26923828 150.30596924 277.18066406 C150.06571261 338.66413963 124.59821405 393.49926272 81.33300781 436.66308594 C44.98326691 472.39410784 -6.47089608 496.27949535 -57.69750977 496.31469727 C-77.20816445 496.06412347 -96.15776555 489.39710505 -112 478 C-112.71800781 477.50371094 -113.43601562 477.00742187 -114.17578125 476.49609375 C-135.28032443 461.10173776 -149.58835211 439.23102179 -156 414 C-156.2990625 412.88367188 -156.598125 411.76734375 -156.90625 410.6171875 C-161.1470416 392.12262414 -160.70984298 371.37342487 -156 353 C-155.79600586 352.18515137 -155.59201172 351.37030273 -155.38183594 350.53076172 C-148.11510488 322.06146528 -135.0285837 296.21863052 -117 273 C-132.25247994 284.23176889 -141.61240197 303.55414165 -151.296875 319.38671875 C-166.67770527 344.49671351 -182.5211423 367.71747316 -209.4375 381.5 C-210.13625244 381.86287109 -210.83500488 382.22574219 -211.55493164 382.59960938 C-216.63683408 385.12105531 -216.63683408 385.12105531 -220 384 C-219.54109375 383.07960938 -219.0821875 382.15921875 -218.609375 381.2109375 C-210.51954554 364.68088826 -204.90366306 346.78901083 -210.98046875 328.55859375 C-211.31691406 327.71425781 -211.65335937 326.86992187 -212 326 C-212.36738281 325.06285156 -212.73476563 324.12570312 -213.11328125 323.16015625 C-221.39947107 304.55900447 -237.27758355 292.88979277 -255 284 C-251.92814759 281.46206479 -248.96742523 280.08875744 -245.25 278.6875 C-234.56586028 274.32556689 -226.39282148 267.32951173 -221.25 256.875 C-212.56477906 235.95021028 -214.33267375 211.65477658 -222.46655273 190.81665039 C-227.63485585 178.32568107 -234.51733547 168.55208374 -244 159 C-245.08861328 157.8553125 -245.08861328 157.8553125 -246.19921875 156.6875 C-249.94640307 152.80044043 -253.83049236 149.44453989 -258.23828125 146.32421875 C-259.99279874 145.00541292 -261.48754479 143.58691454 -263 142 C-261.1128125 142.37125 -261.1128125 142.37125 -259.1875 142.75 C-257.81464844 143.01683594 -257.81464844 143.01683594 -256.4140625 143.2890625 C-253.84913983 143.82317683 -251.3170711 144.40196227 -248.7734375 145.0234375 C-229.64734293 149.57938895 -209.21973559 150.51735335 -191.42578125 140.6484375 C-163.97428745 121.9937992 -154.07052181 84.74203949 -144 55 C-143.67 55 -143.34 55 -143 55 C-142.98541748 55.58265625 -142.97083496 56.1653125 -142.95581055 56.765625 C-141.75886082 99.80506095 -124.4615607 132.17667732 -99.0625 166.0625 C-86.77637251 182.46041295 -77.91277422 198.35916777 -76 219 C-68.78673031 197.67884943 -77.45251547 178.82155076 -86.6875 159.859375 C-93.08951524 146.59660139 -97.31649121 131.55890783 -92.375 117.0625 C-89.14856959 109.54165699 -85.07641348 103.89787156 -79 98.4375 C-76.66249214 96.2862049 -76.66249214 96.2862049 -75 94 C-75.23985821 90.4299853 -75.23985821 90.4299853 -76.2265625 88.21875 C-79.8413773 77.84897824 -75.69463216 66.31869514 -71.23046875 56.93261719 C-68.04101183 50.44917996 -64.64579651 44.57495582 -60 39 C-60.55042969 39.144375 -61.10085938 39.28875 -61.66796875 39.4375 C-68.41219645 40.94318805 -74.99391156 41.22155351 -81.875 41.25 C-82.79047607 41.25902344 -83.70595215 41.26804688 -84.64916992 41.27734375 C-89.19302489 41.2572918 -92.88271554 41.17061859 -97 39 C-97 38.67 -97 38.34 -97 38 C-95.88625 37.99742187 -94.7725 37.99484375 -93.625 37.9921875 C-81.08163087 37.75562457 -68.44339326 36.01411535 -58.5 27.625 C-57.675 26.75875 -56.85 25.8925 -56 25 C-56.72703125 25.433125 -56.72703125 25.433125 -57.46875 25.875 C-63.26623889 29.08591693 -68.05268244 30.0776608 -74.50390625 28.31640625 C-76.69532554 27.59965096 -78.85143039 26.83555485 -81 26 C-81 25.67 -81 25.34 -81 25 C-80.38592285 24.96036133 -79.7718457 24.92072266 -79.13916016 24.87988281 C-76.29967068 24.68685085 -73.46263433 24.46855977 -70.625 24.25 C-69.65949219 24.188125 -68.69398438 24.12625 -67.69921875 24.0625 C-59.12347507 23.37183608 -51.98085823 21.11044134 -44.8125 16.3125 C-41.26816852 13.98316248 -38.3111354 13.08622271 -34 13 C-33.01 13.99 -33.01 13.99 -32 15 C-25.9567958 15 -21.12038656 10.03341758 -17 6.08203125 C-15.8029875 4.87254987 -14.61683616 3.6521553 -13.4453125 2.41796875 C-9.80265674 -1.1557719 -4.76010284 -0.8693601 0 0 Z " fill="#FBFBFC" transform="translate(593,147)"/>
<path d="M0 0 C0.99 0.495 0.99 0.495 2 1 C1.16597656 1.73863281 0.33195312 2.47726563 -0.52734375 3.23828125 C-6.86335576 8.92284812 -12.65819143 14.60742241 -17.90234375 21.33203125 C-19.52374422 23.3942594 -21.17894676 25.36178686 -22.90625 27.33203125 C-44.14433048 52.00818218 -57.71643957 84.32300098 -64 116 C-64.26039063 117.22420654 -64.52078125 118.44841309 -64.7890625 119.7097168 C-66.89455573 130.07706942 -67.46822732 140.13531609 -67.39111328 150.70092773 C-67.375074 153.30050618 -67.39104385 155.89851588 -67.41015625 158.49804688 C-67.46684566 200.71375474 -52.66817805 243.80313357 -28 278 C-27.28070313 279.00417969 -26.56140625 280.00835938 -25.8203125 281.04296875 C-21.53804252 286.88848953 -17.02153581 292.38481751 -12.10546875 297.70703125 C-10.23791796 299.74089454 -8.4601578 301.82147023 -6.6875 303.9375 C5.92534429 318.34391389 21.92439553 329.79651342 38 340 C38.96035156 340.61488281 39.92070312 341.22976563 40.91015625 341.86328125 C47.03622666 345.61129901 53.42425886 348.74212177 59.9375 351.75 C61.23482056 352.34941406 61.23482056 352.34941406 62.55834961 352.9609375 C67.50996926 355.15894838 71.8267344 356.43746706 77.25 357.0625 C80.28197731 357.61939379 82.24086925 358.01744615 84.16796875 360.51171875 C86.10841703 363.85321272 87.59938559 367.36067656 89.11328125 370.91015625 C91.60437946 376.64902539 95.51107824 380.72004529 100 385 C100.68578125 385.68191406 101.3715625 386.36382813 102.078125 387.06640625 C107.09780326 391.8165092 112.61840131 395.50553187 118.47924805 399.11938477 C119.99973733 400.05795065 121.50188494 401.02611866 123 402 C123 402.33 123 402.66 123 403 C114.95530846 403.41067626 107.59400309 402.21975311 99.75 400.5 C98.51854248 400.23010254 97.28708496 399.96020508 96.01831055 399.68212891 C57.63827506 390.91366568 23.92478025 371.01104862 -5.46826172 345.30224609 C-6.90958133 344.07687172 -8.40864172 342.92035648 -9.91015625 341.76953125 C-10.59980469 341.18558594 -11.28945313 340.60164063 -12 340 C-12 339.34 -12 338.68 -12 338 C-12.66 338 -13.32 338 -14 338 C-15.41015625 336.6015625 -15.41015625 336.6015625 -17.0625 334.625 C-18.99287905 332.34256412 -20.91869914 330.08630151 -22.96875 327.91015625 C-34.77480955 315.37723109 -44.60385609 300.99516096 -53 286 C-53.33692871 285.4136377 -53.67385742 284.82727539 -54.02099609 284.22314453 C-80.81338562 237.51247593 -90.21899046 177.59016162 -79 125 C-78.81276367 124.10361816 -78.62552734 123.20723633 -78.43261719 122.28369141 C-75.80907724 110.0382394 -72.00389216 98.47280218 -67 87 C-66.63777344 86.16855469 -66.27554687 85.33710938 -65.90234375 84.48046875 C-55.53892321 61.04859926 -41.7251208 40.47170363 -24 22 C-23.09121094 21.04996094 -22.18242187 20.09992188 -21.24609375 19.12109375 C-15.84049978 13.59247062 -10.26713861 8.57923623 -4.21484375 3.77734375 C-1.96701221 2.03963677 -1.96701221 2.03963677 0 0 Z " fill="#FAF9FA" transform="translate(363,239)"/>
<path d="M0 0 C11.75351359 -0.06804629 23.5068942 -0.12297138 35.26056099 -0.15543652 C40.71951805 -0.17102595 46.17833219 -0.19214009 51.63720703 -0.22631836 C56.91514344 -0.25915321 62.19294323 -0.27690344 67.47097397 -0.28463173 C69.47458926 -0.29013225 71.47819792 -0.3008721 73.4817543 -0.31719017 C105.50388815 -0.56738707 105.50388815 -0.56738707 115.9296875 8.71875 C123.08244541 16.19798233 124.46551248 24.35952498 124.3984375 34.44140625 C124.40130768 35.40852036 124.40417786 36.37563446 124.40713501 37.37205505 C124.40916405 39.40323477 124.40371602 41.43443454 124.39111328 43.46557617 C124.37502562 46.55757665 124.39101098 49.64827366 124.41015625 52.74023438 C124.40817395 54.72396119 124.40433056 56.7076872 124.3984375 58.69140625 C124.40451019 59.60620255 124.41058289 60.52099884 124.4168396 61.46351624 C124.32999864 69.46467643 122.52602618 76.30475646 117 82.328125 C107.85292898 89.97450468 97.83429344 91.16067159 86.39282227 91.11352539 C85.45545731 91.11367142 84.51809235 91.11381744 83.55232239 91.1139679 C80.47365961 91.11327477 77.39505837 91.10551059 74.31640625 91.09765625 C72.17406752 91.09578994 70.03172835 91.09436704 67.88938904 91.09336853 C62.26537893 91.08956016 56.64139487 91.07974426 51.01739502 91.06866455 C44.26168608 91.05661038 37.5059684 91.05204019 30.75025177 91.04621124 C20.50014976 91.03653157 10.25010484 91.01736325 0 91 C0 75.49 0 59.98 0 44 C9.57 44 19.14 44 29 44 C29 52.25 29 60.5 29 69 C36.2777312 68.90292952 43.55491114 68.80011053 50.83227539 68.68261719 C53.30650926 68.64440008 55.78079731 68.60953467 58.25512695 68.578125 C61.81741665 68.53231697 65.37933569 68.47434758 68.94140625 68.4140625 C70.04271378 68.40251129 71.1440213 68.39096008 72.27870178 68.37905884 C81.88394543 68.30292425 81.88394543 68.30292425 90.3125 64.1875 C94.7362224 58.45304503 94.33431025 52.55193501 94.3125 45.625 C94.32861328 44.60921875 94.34472656 43.5934375 94.36132812 42.546875 C94.36519322 36.59462125 93.95955959 32.21446214 91 27 C88.55690423 25.08255407 88.55690423 25.08255407 86 24 C85.34 23.67 84.68 23.34 84 23 C81.34625148 22.87756962 78.71701637 22.81431199 76.06201172 22.79467773 C75.24241974 22.78477814 74.42282776 22.77487854 73.57839966 22.76467896 C70.86219192 22.73302467 68.14596668 22.70829103 65.4296875 22.68359375 C63.5492405 22.66302761 61.66879817 22.64203123 59.7883606 22.62062073 C54.83343269 22.5653649 49.87846283 22.51597112 44.92346191 22.46777344 C39.86950943 22.41758402 34.81561806 22.36188461 29.76171875 22.30664062 C19.84119604 22.1990161 9.92062157 22.0980897 0 22 C0 14.74 0 7.48 0 0 Z " fill="#FAFAFA" transform="translate(448,720)"/>
<path d="M0 0 C11.6404004 -0.06801948 23.28066684 -0.12295611 34.92122173 -0.15543652 C40.32752101 -0.1710325 45.7336762 -0.19215893 51.13989258 -0.22631836 C56.36595369 -0.25912944 61.59187698 -0.27689854 66.81803322 -0.28463173 C68.80293761 -0.29013644 70.78783523 -0.3008848 72.77268028 -0.31719017 C102.75299411 -0.55348044 102.75299411 -0.55348044 112 8 C119.3411705 16.99937348 119.78951832 25.55839147 119.23095703 36.84179688 C118.58359581 42.89113427 115.70858095 47.24760928 111.5625 51.5 C108.7774308 53.13028441 106.103645 54.13386651 103 55 C103.66386719 55.29132812 104.32773437 55.58265625 105.01171875 55.8828125 C110.72568699 58.53542841 114.46143941 60.74923267 118 66 C119.00005304 69.00015912 119.11575585 70.97423756 119.09765625 74.10546875 C119.09515869 74.99129639 119.09266113 75.87712402 119.09008789 76.78979492 C119.08098389 77.9110376 119.07187988 79.03228027 119.0625 80.1875 C119.041875 83.755625 119.02125 87.32375 119 91 C109.1 91 99.2 91 89 91 C88.6875 81.75 88.6875 81.75 88.61206055 78.85449219 C88.57894775 78.09297852 88.54583496 77.33146484 88.51171875 76.546875 C88.48553467 75.77182617 88.45935059 74.99677734 88.43237305 74.19824219 C87.87747024 71.37704238 86.98100958 70.0827476 85 68 C82.52979895 67.38359069 82.52979895 67.38359069 79.70239258 67.45410156 C78.62149857 67.43438293 77.54060455 67.41466431 76.42695618 67.39434814 C75.26125595 67.39311951 74.09555573 67.39189087 72.89453125 67.390625 C71.10301888 67.36582062 71.10301888 67.36582062 69.27531433 67.34051514 C65.4543248 67.29186497 61.63373374 67.2706255 57.8125 67.25 C55.22458914 67.22185471 52.63669698 67.19192934 50.04882812 67.16015625 C43.69903238 67.08274456 37.35051366 67.04237914 31 67 C31 74.92 31 82.84 31 91 C20.77 91 10.54 91 0 91 C0 75.82 0 60.64 0 45 C9.02601563 44.96132813 9.02601563 44.96132813 18.234375 44.921875 C22.04431361 44.89671129 25.85417246 44.87038215 29.6640625 44.83984375 C35.71256831 44.79147294 41.76088955 44.74744203 47.80957031 44.72900391 C52.68568004 44.71387034 57.56130726 44.67948371 62.43720245 44.63169098 C64.29829975 44.61684305 66.15946592 44.60895704 68.02062225 44.60811615 C70.62592635 44.60575496 73.22988777 44.57874504 75.83496094 44.54589844 C76.60604187 44.5509288 77.3771228 44.55595917 78.17156982 44.56114197 C81.65795918 44.4930438 83.6427733 44.26545768 86.47711182 42.15924072 C88.56715423 39.19585527 88.53300816 37.09788978 88.5 33.5 C88.5103125 32.3759375 88.520625 31.251875 88.53125 30.09375 C87.87139419 26.2510603 87.11306581 25.31334118 84 23 C81.15144782 22.59717875 78.68376424 22.43551659 75.83496094 22.45410156 C75.0150769 22.44376389 74.19519287 22.43342621 73.35046387 22.42277527 C70.64490118 22.3933161 67.94008556 22.39184746 65.234375 22.390625 C63.35677664 22.37564543 61.47919146 22.35891875 59.60162354 22.34051514 C54.66312052 22.29680429 49.72479525 22.27683425 44.78613281 22.26177979 C39.74533562 22.24222217 34.70473078 22.20025065 29.6640625 22.16015625 C19.77606839 22.08481344 9.88821344 22.03661834 0 22 C0 14.74 0 7.48 0 0 Z " fill="#F7F7F7" transform="translate(593,720)"/>
<path d="M0 0 C9.9 0 19.8 0 30 0 C30 11.22 30 22.44 30 34 C50.46 34 70.92 34 92 34 C92 22.78 92 11.56 92 0 C101.9 0 111.8 0 122 0 C122 30.03 122 60.06 122 91 C112.1 91 102.2 91 92 91 C92 79.45 92 67.9 92 56 C71.54 56 51.08 56 30 56 C30 67.55 30 79.1 30 91 C20.1 91 10.2 91 0 91 C0 60.97 0 30.94 0 0 Z " fill="#F9F9FA" transform="translate(168,720)"/>
<path d="M0 0 C5.44406318 -0.22311734 10.88544877 -0.38606904 16.33300781 -0.49438477 C18.18406536 -0.53954435 20.0348036 -0.60089139 21.88476562 -0.67895508 C37.12942125 -1.30595301 37.12942125 -1.30595301 41.34155273 1.63476562 C42.95702342 4.01585335 43.95056602 6.32307444 45 9 C46.08522558 10.88209409 47.19740234 12.74883209 48.33203125 14.6015625 C49.49474933 16.60789254 50.6548236 18.61575663 51.8125 20.625 C53.05659092 22.77123968 54.30138065 24.91707445 55.546875 27.0625 C56.14306641 28.08988281 56.73925781 29.11726562 57.35351562 30.17578125 C59.39440532 33.67652443 61.46756827 37.15639939 63.5625 40.625 C67.24678075 46.72749759 70.87815012 52.86025047 74.5 59 C80.29767644 68.82129048 80.29767644 68.82129048 86.125 78.625 C86.65577148 79.52025391 86.65577148 79.52025391 87.19726562 80.43359375 C88.61751788 82.80716601 90.05852105 85.07636604 91.7421875 87.2734375 C93 89 93 89 93 91 C88.46600554 91.37390211 83.94109984 91.64409822 79.39526367 91.82397461 C77.85461247 91.89895136 76.3150133 92.00100881 74.77807617 92.1315918 C69.53081721 92.56588295 65.03989501 92.67157456 60 91 C58.48815018 88.44152788 57.44132855 86.25590807 56.375 83.53125 C55.02585666 80.3917635 53.71261192 78.12642972 51 76 C41.84388569 73.3184167 31.56317878 74.21973657 22.10473633 74.50646973 C18.4849204 74.60005402 14.86498395 74.60775694 11.24414062 74.62304688 C4.16035879 74.66544112 -2.9187102 74.80226874 -10 75 C-10.66 76.65 -11.32 78.3 -12 80 C-13.98 83.63 -15.96 87.26 -18 91 C-28.89 91 -39.78 91 -51 91 C-49.35428495 86.88571237 -47.62722491 83.49025615 -45.375 79.7109375 C-44.85365479 78.83328232 -44.85365479 78.83328232 -44.32177734 77.93789673 C-43.2178512 76.0815894 -42.10891321 74.22833147 -41 72.375 C-40.25489786 71.12258049 -39.51010314 69.86997804 -38.765625 68.6171875 C-33.3746364 59.5619546 -33.3746364 59.5619546 -31 56 C-28.0640564 55.63923645 -28.0640564 55.63923645 -24.25537109 55.65942383 C-23.56257553 55.65898575 -22.86977997 55.65854767 -22.1559906 55.65809631 C-19.86152149 55.66018968 -17.56777926 55.68354532 -15.2734375 55.70703125 C-13.68446248 55.71262529 -12.09548229 55.71689629 -10.50650024 55.71989441 C-6.32077797 55.73135842 -2.13536714 55.76083869 2.05023193 55.79400635 C6.31990343 55.82467389 10.58962516 55.83839263 14.859375 55.85351562 C23.23972639 55.88570716 31.61982447 55.93692197 40 56 C38.09812775 52.8265401 36.19560269 49.65347203 34.29296875 46.48046875 C33.75990112 45.59097534 33.2268335 44.70148193 32.6776123 43.78503418 C26.6071481 32.27741863 26.6071481 32.27741863 19 22 C16.36 26.62 13.72 31.24 11 36 C0.77 36 -9.46 36 -20 36 C-18.52811123 32.32027806 -17.14156255 29.36099708 -15.13671875 26.015625 C-14.30043945 24.61183594 -14.30043945 24.61183594 -13.44726562 23.1796875 C-12.86654297 22.21289062 -12.28582031 21.24609375 -11.6875 20.25 C-7.68303848 13.55624552 -3.73714731 6.84736345 0 0 Z " fill="#FAFAFB" transform="translate(776,720)"/>
<path d="M0 0 C5.10414115 -0.27383964 10.20393737 -0.47234244 15.3137207 -0.60424805 C17.04755158 -0.65926213 18.78087912 -0.73411011 20.51293945 -0.82983398 C34.88462642 -1.60366222 34.88462642 -1.60366222 39.984375 2.26245117 C42.26000385 5.06515582 44.13577295 7.91256441 46 11 C47.04852895 12.24473777 48.13025681 13.46309052 49.2578125 14.63671875 C49.73476563 15.14726807 50.21171875 15.65781738 50.703125 16.18383789 C51.17234375 16.68004639 51.6415625 17.17625488 52.125 17.6875 C53.14925902 18.78308671 54.17269997 19.87943882 55.1953125 20.9765625 C55.67645508 21.49250977 56.15759766 22.00845703 56.65332031 22.54003906 C59.02641565 25.11275663 61.30861654 27.76292939 63.59765625 30.41015625 C65.31692046 32.35929422 67.12536465 34.20035006 69 36 C69.37511719 35.14535156 69.37511719 35.14535156 69.7578125 34.2734375 C71.18107216 31.66860377 72.85098641 29.79729298 74.875 27.625 C79.21392118 22.89417626 83.41122354 18.06073758 87.57373047 13.17431641 C88.54011152 12.04078467 89.5207739 10.91929333 90.5144043 9.80957031 C92.07194214 8.0104026 92.07194214 8.0104026 93.27661133 5.80761719 C95.00328136 3.15913809 96.30523246 1.69209995 99 0 C105.17473094 -0.99510761 111.20788828 -0.75503093 117.4375 -0.5 C119.1398905 -0.45983324 120.84237183 -0.42333804 122.54492188 -0.390625 C126.69887035 -0.30284571 130.84843231 -0.16503442 135 0 C131.28584896 5.11979413 127.41327843 9.91128838 123.0625 14.5 C122.0005188 15.63468407 120.93931575 16.77009696 119.87890625 17.90625 C119.37762207 18.4425 118.87633789 18.97875 118.35986328 19.53125 C116.7017428 21.3221392 115.09375788 23.15171076 113.5 25 C107.40233695 32.04257936 100.97614089 38.80382958 94.62890625 45.62109375 C94.08387451 46.20802002 93.53884277 46.79494629 92.97729492 47.3996582 C91.93110346 48.52619105 90.88316453 49.65110429 89.83325195 50.77416992 C85.19420621 55.77316204 83.696116 58.77435636 83.5859375 65.51171875 C83.56657135 66.23994339 83.5472052 66.96816803 83.5272522 67.71846008 C83.46753624 70.04135475 83.42110383 72.36429919 83.375 74.6875 C83.33681279 76.26369332 83.29776062 77.83986595 83.2578125 79.41601562 C83.16021453 83.2772352 83.08058592 87.13823786 83 91 C73.1 91 63.2 91 53 91 C53.06703125 88.76863281 53.1340625 86.53726563 53.203125 84.23828125 C54.30705445 66.79227188 54.30705445 66.79227188 47.97949219 51.4206543 C45.97997559 49.57234886 43.8771056 47.89392425 41.65771484 46.31640625 C39.0185711 44.22063849 36.96782056 41.66150486 34.79443359 39.09887695 C31.85717036 35.66327804 28.73066157 32.40780587 25.625 29.125 C20.71428732 23.91045731 15.84063968 18.67168908 11.07421875 13.32421875 C9.54448902 11.61011481 8.00375627 9.90581525 6.45703125 8.20703125 C5.62558594 7.29308594 4.79414063 6.37914062 3.9375 5.4375 C3.18339844 4.61121094 2.42929687 3.78492188 1.65234375 2.93359375 C0 1 0 1 0 0 Z " fill="#FAFAFB" transform="translate(301,720)"/>
<path d="M0 0 C0.66 0 1.32 0 2 0 C3.64856354 2.13271417 5.14923596 4.25071483 6.625 6.5 C7.067229 7.17272949 7.50945801 7.84545898 7.96508789 8.53857422 C18.6762998 25.166254 23.53393278 39.87014995 23.30078125 59.7890625 C23.29216064 60.52850098 23.28354004 61.26793945 23.2746582 62.02978516 C23 64 23 64 21 67 C20.443125 66.00742187 19.88625 65.01484375 19.3125 63.9921875 C18.94761475 63.34258057 18.58272949 62.69297363 18.20678711 62.02368164 C17.39185941 60.57270477 16.57758496 59.12136085 15.76391602 57.66967773 C13.83614811 54.23659988 11.90005633 50.81090916 9.90234375 47.41796875 C-6.42214121 19.53977276 -6.42214121 19.53977276 -4 8 C-2.91240105 5.0367537 -1.66650281 2.70806707 0 0 Z " fill="#080808" transform="translate(525,260)"/>
<path d="M0 0 C0 3.63375339 -0.72456157 4.21002134 -3 6.9375 C-6.7977998 11.59633944 -9.91126375 16.54548187 -13.0078125 21.69140625 C-15 24 -15 24 -17.7421875 24.33984375 C-18.48726563 24.22769531 -19.23234375 24.11554688 -20 24 C-14.80034103 15.09859707 -8.71277513 5.80851675 0 0 Z " fill="#171818" transform="translate(476,419)"/>
<path d="M0 0 C0.66 0.33 1.32 0.66 2 1 C-0.37524249 3.75028078 -2.6159924 4.76194844 -6 6 C-6.598125 6.37125 -7.19625 6.7425 -7.8125 7.125 C-14.39455341 9.75782136 -20.75124566 7.43007113 -27 5 C-27 4.67 -27 4.34 -27 4 C-26.35973877 3.9498877 -25.71947754 3.89977539 -25.05981445 3.84814453 C-22.14332584 3.61524793 -19.22797522 3.37024399 -16.3125 3.125 C-15.30509766 3.04636719 -14.29769531 2.96773437 -13.25976562 2.88671875 C-12.28330078 2.80292969 -11.30683594 2.71914062 -10.30078125 2.6328125 C-8.95753784 2.52283936 -8.95753784 2.52283936 -7.5871582 2.41064453 C-4.92335773 2.08831317 -4.92335773 2.08831317 -2.29370117 0.89794922 C-1.53677979 0.60162598 -0.7798584 0.30530273 0 0 Z " fill="#E7E7E7" transform="translate(539,168)"/>
<path d="M0 0 C5.30471219 0.01918522 8.72594437 2.87401175 12.4375 6.4375 C12.4375 6.7675 12.4375 7.0975 12.4375 7.4375 C1.29422938 7.66036541 1.29422938 7.66036541 -2.5625 6.4375 C-3.9375 3.875 -3.9375 3.875 -4.5625 1.4375 C-3.5625 0.4375 -3.5625 0.4375 0 0 Z " fill="#131312" transform="translate(645.5625,351.5625)"/>
<path d="M0 0 C0.66 0.33 1.32 0.66 2 1 C0.74896484 2.10794922 0.74896484 2.10794922 -0.52734375 3.23828125 C-7.02153141 9.06699361 -12.86783369 14.8845382 -18.1953125 21.8203125 C-20 24 -20 24 -23 26 C-23 25.34 -23 24.68 -23 24 C-23.66 23.67 -24.32 23.34 -25 23 C-18.35612318 16.14741501 -11.67331834 9.67193017 -4.1796875 3.7421875 C-1.96061635 2.03452708 -1.96061635 2.03452708 0 0 Z " fill="#DCDCDE" transform="translate(363,239)"/>
<path d="M0 0 C3.60482889 0.20026827 4.94262587 0.94929728 7.6875 3.375 C12 8.27027027 12 8.27027027 12 12 C8.94965232 10.53779205 6.09628974 8.89026449 3.25 7.0625 C2.45078125 6.55847656 1.6515625 6.05445313 0.828125 5.53515625 C0.22484375 5.02855469 -0.3784375 4.52195312 -1 4 C-1 1 -1 1 0 0 Z " fill="#181919" transform="translate(587,260)"/>
<path d="M0 0 C-4.36697248 7.01834862 -4.36697248 7.01834862 -8 9 C-10.75 9.1875 -10.75 9.1875 -13 9 C-12.875 6.75 -12.875 6.75 -12 4 C-7.99539364 0.55417592 -5.25696028 -0.50066288 0 0 Z " fill="#1B1B1B" transform="translate(563,170)"/>
<path d="M0 0 C0.66 0 1.32 0 2 0 C2.81571218 2.56151683 3.62766131 5.12412628 4.4375 7.6875 C4.66759766 8.40873047 4.89769531 9.12996094 5.13476562 9.87304688 C6.2969767 13.56180375 7.34442773 17.17959607 8 21 C4.52773837 19.84257946 3.58374637 18.54035122 1.8515625 15.38671875 C0.09757446 10.47072475 0.15563845 5.17497859 0 0 Z " fill="#EFEFEF" transform="translate(590,231)"/>
<path d="M0 0 C2.43119413 2.36366096 4.73563947 4.64122499 6.75 7.375 C10.02089584 11.19104515 13.97570378 14.01617353 18 17 C16 18 16 18 14.265625 17.46875 C8.44156326 14.66958854 3.68103755 11.15410241 1.1875 4.9921875 C0.625 3.0625 0.625 3.0625 0 0 Z " fill="#DFDFE0" transform="translate(618,321)"/>
<path d="M0 0 C1.010625 0.78375 2.02125 1.5675 3.0625 2.375 C6.5511061 4.88000316 9.79357849 6.02928734 14 7 C14.99 7.33 15.98 7.66 17 8 C17 8.66 17 9.32 17 10 C17.66 10.33 18.32 10.66 19 11 C11.14503688 10.69196223 4.95940803 7.46909516 -2 4 C-1.34 2.68 -0.68 1.36 0 0 Z " fill="#323231" transform="translate(622,331)"/>
<path d="M0 0 C0.33 0 0.66 0 1 0 C1.08834684 3.31232698 1.14083584 6.62434435 1.1875 9.9375 C1.21263672 10.86369141 1.23777344 11.78988281 1.26367188 12.74414062 C1.33010773 19.05554674 0.40207858 24.15864318 -2 30 C-2.33 30 -2.66 30 -3 30 C-3.0270043 28.54176788 -3.04639787 27.08339325 -3.0625 25.625 C-3.07410156 24.81289063 -3.08570313 24.00078125 -3.09765625 23.1640625 C-3 21 -3 21 -2 19 C-1.34 19 -0.68 19 0 19 C0 12.73 0 6.46 0 0 Z " fill="#282728" transform="translate(519,338)"/>
<path d="M0 0 C0 4.35251187 -2.06165511 5.92809398 -5 9 C-7.3125 9.875 -7.3125 9.875 -9 10 C-7.61811547 6.78956118 -6.07578097 4.95063635 -3.375 2.75 C-2.74335938 2.22921875 -2.11171875 1.7084375 -1.4609375 1.171875 C-0.73777344 0.59179688 -0.73777344 0.59179688 0 0 Z " fill="#3C3B3D" transform="translate(476,419)"/>
<path d="M0 0 C-2.52956528 3.0916909 -5.22454612 3.90931332 -9 5 C-9.33 4.01 -9.66 3.02 -10 2 C-8.71211992 1.46987262 -7.41953322 0.9511671 -6.125 0.4375 C-5.40570312 0.14746094 -4.68640625 -0.14257812 -3.9453125 -0.44140625 C-2 -1 -2 -1 0 0 Z " fill="#BBBBBC" transform="translate(541,169)"/>
<path d="M0 0 C4.95 0.99 4.95 0.99 10 2 C9.34 3.32 8.68 4.64 8 6 C6.66402348 5.19185349 5.331275 4.37836819 4 3.5625 C3.2575 3.11003906 2.515 2.65757812 1.75 2.19140625 C1.1725 1.79824219 0.595 1.40507812 0 1 C0 0.67 0 0.34 0 0 Z " fill="#D4D4D5" transform="translate(330,289)"/>
<path d="M0 0 C1.9451 2.91765 2.45276317 4.62537285 3 8 C2.01 7.67 1.02 7.34 0 7 C-1.1875 4.4375 -1.1875 4.4375 -2 2 C-1.34 1.34 -0.68 0.68 0 0 Z " fill="#C4C4C4" transform="translate(595,244)"/>
<path d="M0 0 C0.66 0 1.32 0 2 0 C2.66 2.64 3.32 5.28 4 8 C3.01 8 2.02 8 1 8 C-0.35439668 5.29120665 -0.06501451 2.99066732 0 0 Z " fill="#C0BFC0" transform="translate(590,231)"/>
<path d="M0 0 C0 3 0 3 -2.5 5.6875 C-3.325 6.450625 -4.15 7.21375 -5 8 C-5 7.34 -5 6.68 -5 6 C-5.66 5.67 -6.32 5.34 -7 5 C-6.030625 4.360625 -5.06125 3.72125 -4.0625 3.0625 C-1.23963731 1.3034741 -1.23963731 1.3034741 0 0 Z " fill="#E8E8E8" transform="translate(345,257)"/>
<path d="M0 0 C0.66 0.33 1.32 0.66 2 1 C-1.465 3.97 -1.465 3.97 -5 7 C-5.66 6.01 -6.32 5.02 -7 4 C-1.7265625 0.77734375 -1.7265625 0.77734375 0 0 Z " fill="#1F201F" transform="translate(536,171)"/>
<path d="M0 0 C2 1.375 2 1.375 4 3 C4 3.66 4 4.32 4 5 C1.03 4.505 1.03 4.505 -2 4 C-1.34 2.68 -0.68 1.36 0 0 Z " fill="#232322" transform="translate(622,331)"/>
</svg>
